<?xml version="1.0" encoding="UTF-8" standalone="no"?>
<!DOCTYPE svg PUBLIC "-//W3C//DTD SVG 1.1//EN" "http://www.w3.org/Graphics/SVG/1.1/DTD/svg11.dtd">
<svg class="deth-logo" width="100%" height="100%" viewBox="0 0 7400 2000" version="1.1" xmlns="http://www.w3.org/2000/svg" xmlns:xlink="http://www.w3.org/1999/xlink" xml:space="preserve" xmlns:serif="http://www.serif.com/" style="fill-rule:evenodd;clip-rule:evenodd;stroke-linejoin:round;stroke-miterlimit:2;">
    <g transform="matrix(1,0,0,1,0,-505.156)">
        <g transform="matrix(1,0,0,1,600,1000)">
            <rect x="1000" y="500" width="500" height="100"/>
            <path d="M1000,700L1300,700L1300,800L1100,800L1100,900L1500,900L1500,1000L1000,1000L1000,700Z"/>
        </g>
        <g transform="matrix(1,0,0,1,5400.04,1000)">
            <rect x="1000" y="500" width="500" height="100"/>
            <path d="M1000,700L1300,700L1300,800L1100,800L1100,900L1500,900L1500,1000L1000,1000L1000,700Z"/>
        </g>
        <g transform="matrix(1,0,0,0.989793,700,1015.36)">
            <g transform="matrix(1,0,0,1,0,-5.15614)">
                <rect x="1500" y="500" width="100" height="100"/>
            </g>
            <path d="M1700,494.844L1700,1000L1800,1000L1800,600L2000,600L2000,494.844L1700,494.844Z"/>
        </g>
        <g transform="matrix(1,0,0,0.989793,2496.93,1015.36)">
            <g transform="matrix(1,0,0,1,0,-5.15614)">
                <rect x="1500" y="500" width="100" height="100"/>
            </g>
            <path d="M1700,494.844L1700,1000L1800,1000L1800,600L2000,600L2000,494.844L1700,494.844Z"/>
        </g>
        <g transform="matrix(1,0,0,1,800,1005.16)">
            <rect x="2000" y="500" width="100" height="500"/>
            <path d="M2200,700L2400,700L2400,500L2500,500L2500,1000L2400,1000L2400,800L2200,800L2200,700Z"/>
        </g>
        <path d="M3585.24,1700L3691.45,1700L3691.45,1700L3750,1700L3750.49,1700C3833.06,1700.27 3900,1767.38 3900,1850C3900,1932.79 3832.79,2000 3750,2000L3400,2000L3400,1900L3550,1900L3550,1900.01L3745,1900.01L3745,1899.75C3746.65,1899.92 3748.31,1900 3750,1900C3777.6,1900 3800,1877.6 3800,1850C3800,1822.4 3777.6,1800 3750,1800C3748.31,1800 3746.65,1800.08 3745,1800.25L3745,1800.01L3608.55,1800.01L3608.55,1800L3555,1800L3555,1799.92C3553.34,1799.97 3551.67,1800 3550,1800C3484.74,1800 3429.16,1758.23 3408.55,1700L3585.24,1700L3585.24,1700ZM3408.55,1600C3429.16,1541.77 3484.74,1500 3550,1500L3900,1500L3900,1600L3750,1600L3750,1600L3555,1600L3555,1600L3408.55,1600Z"/>
        <g transform="matrix(1,0,0,1,603.068,1000)">
            <path d="M4491.45,700C4474.34,748.337 4433.15,785.325 4382.32,796.503L4499.81,1000L4384.34,1000L4268.87,800L4100,800L4100,1000L3996.93,1000L3996.93,700L4491.45,700ZM3996.93,600L3996.93,500L4350,500L4350.48,500.001C4415.53,500.212 4470.89,541.907 4491.45,600L3996.93,600Z"/>
        </g>
        <g transform="matrix(1,0,0,1,-2300,1000)">
            <path d="M7994.99,700C7998.28,716.153 8000,732.877 8000,750C8000,887.979 7887.98,1000 7750,1000C7612.02,1000 7500,887.979 7500,750C7500,732.877 7501.73,716.153 7505.01,700L7608.55,700C7603.01,715.646 7600,732.474 7600,750C7600,832.787 7667.21,900 7750,900C7832.79,900 7900,832.787 7900,750C7900,732.474 7896.99,715.646 7891.45,700L7994.99,700ZM7550.04,600C7595.66,539.299 7668.28,500 7750,500C7831.73,500 7904.34,539.299 7949.96,600L7550.04,600Z"/>
        </g>
        <g transform="matrix(1,0,0,1,2800,1000)">
            <path d="M3000,800L3000,700L3350,700C3432.79,700 3500,767.213 3500,850C3500,932.787 3432.79,1000 3350,1000L3000,1000L3000,900L3340,900L3340,898.998C3343.23,899.655 3346.58,900 3350,900C3377.6,900 3400,877.596 3400,850C3400,822.404 3377.6,800 3350,800C3346.58,800 3343.23,800.345 3340,801.002L3340,800L3000,800ZM3000,600L3000,500L3350,500L3350.65,500.002C3405.54,500.35 3450,545.024 3450,600L3000,600Z"/>
        </g>
        <g transform="matrix(1,0,0,1,-7000,-1.59162e-12)">
            <path d="M7500,1150L7500,1000C8051.91,1000 8500,1224.04 8500,1500C8500,1775.96 8051.91,2000 7500,2000L7500,1850C7969.13,1850 8350,1693.17 8350,1500C8350,1306.83 7969.13,1150 7500,1150Z"/>
        </g>
        <g transform="matrix(1,0,0,1,-6000,1000)">
            <path d="M6500,100L6500,0C7051.91,0 7500,224.042 7500,500C7500,775.958 7051.91,1000 6500,1000L6500,900C6996.72,900 7400,720.766 7400,500C7400,279.234 6996.72,100 6500,100Z"/>
        </g>
    </g>
</svg>
